<svg width="50" height="50" viewBox="0 0 50 50" fill="none" xmlns="http://www.w3.org/2000/svg">
<g clip-path="url(#clip0_193_1457)">
<path d="M18.75 33.3333C17.001 32.0215 15.709 30.1927 15.0572 28.1058C14.4053 26.019 14.4265 23.78 15.1179 21.7059C15.8093 19.6318 17.1357 17.8278 18.9093 16.5495C20.6829 15.2711 22.8137 14.5833 25 14.5833C27.1863 14.5833 29.3171 15.2711 31.0907 16.5495C32.8643 17.8278 34.1908 19.6318 34.8821 21.7059C35.5735 23.78 35.5947 26.019 34.9429 28.1058C34.291 30.1927 32.999 32.0215 31.25 33.3333C30.4366 34.1384 29.8242 35.1238 29.4622 36.2095C29.1003 37.2953 28.9991 38.4511 29.1667 39.5833C29.1667 40.6883 28.7277 41.7481 27.9463 42.5295C27.1649 43.3109 26.1051 43.7499 25 43.7499C23.8949 43.7499 22.8351 43.3109 22.0537 42.5295C21.2723 41.7481 20.8333 40.6883 20.8333 39.5833C21.001 38.4511 20.8997 37.2953 20.5378 36.2095C20.1758 35.1238 19.5634 34.1384 18.75 33.3333" stroke="#E31E24" stroke-width="4.16667" stroke-linecap="round" stroke-linejoin="round"/>
<path d="M20.2084 35.4167H29.7917" stroke="#E31E24" stroke-width="4.16667" stroke-linecap="round" stroke-linejoin="round"/>
</g>
<defs>
<clipPath id="clip0_193_1457">
<rect width="50" height="50" fill="white"/>
</clipPath>
</defs>
</svg>
