<?xml version="1.0"?>
<svg xmlns="http://www.w3.org/2000/svg" xmlns:xlink="http://www.w3.org/1999/xlink" version="1.1" xml:space="preserve">
	<defs>
		<symbol id="email" width="100%" height="100%" viewBox="0 0 22 18">
			<path fill-rule="evenodd" clip-rule="evenodd" d="M1.37868 1.71193C0.5 2.59061 0.5 4.00482 0.5 6.83325V11.1666C0.5 13.995 0.5 15.4092 1.37868 16.2879C2.25736 17.1666 3.67157 17.1666 6.5 17.1666H15.5C18.3284 17.1666 19.7426 17.1666 20.6213 16.2879C21.5 15.4092 21.5 13.995 21.5 11.1666V6.83325C21.5 4.00483 21.5 2.59061 20.6213 1.71193C19.7426 0.833252 18.3284 0.833252 15.5 0.833252H6.5C3.67157 0.833252 2.25736 0.833252 1.37868 1.71193ZM4.5547 4.66787C4.09517 4.36152 3.4743 4.48569 3.16795 4.94522C2.8616 5.40475 2.98577 6.02562 3.4453 6.33197L9.8906 10.6288C10.5624 11.0767 11.4376 11.0767 12.1094 10.6288L18.5547 6.33197C19.0142 6.02562 19.1384 5.40475 18.8321 4.94522C18.5257 4.48569 17.9048 4.36152 17.4453 4.66787L11 8.96474L4.5547 4.66787Z" fill="currentColor" />
		</symbol>
		<symbol id="phone" width="100%" height="100%" viewBox="0 0 22 22">
			<path d="M0.599998 1.9001C0.599998 1.18213 1.18203 0.600098 1.9 0.600098H4.69873C5.33422 0.600098 5.87657 1.05953 5.98105 1.68638L6.94215 7.45301C7.03597 8.01596 6.75167 8.57426 6.24122 8.82949L4.22864 9.83578C5.67982 13.4419 8.55818 16.3203 12.1643 17.7715L13.1706 15.7589C13.4258 15.2484 13.9841 14.9641 14.5471 15.0579L20.3137 16.019C20.9406 16.1235 21.4 16.6659 21.4 17.3014V20.1001C21.4 20.8181 20.818 21.4001 20.1 21.4001H17.5C8.16639 21.4001 0.599998 13.8337 0.599998 4.5001V1.9001Z" fill="currentColor" />
		</symbol>
		<symbol id="menu" width="100%" height="100%" viewBox="0 0 20 18">
			<path fill-rule="evenodd" clip-rule="evenodd" d="M0.199951 2.0001C0.199951 1.2269 0.826752 0.600098 1.59995 0.600098H18.4C19.1732 0.600098 19.8 1.2269 19.8 2.0001C19.8 2.7733 19.1732 3.4001 18.4 3.4001H1.59995C0.826752 3.4001 0.199951 2.7733 0.199951 2.0001Z" fill="currentColor" />
			<path fill-rule="evenodd" clip-rule="evenodd" d="M0.199951 9.0001C0.199951 8.2269 0.826752 7.6001 1.59995 7.6001H18.4C19.1732 7.6001 19.8 8.2269 19.8 9.0001C19.8 9.7733 19.1732 10.4001 18.4 10.4001H1.59995C0.826752 10.4001 0.199951 9.7733 0.199951 9.0001Z" fill="currentColor" />
			<path fill-rule="evenodd" clip-rule="evenodd" d="M0.199951 16.0001C0.199951 15.2269 0.826752 14.6001 1.59995 14.6001H18.4C19.1732 14.6001 19.8 15.2269 19.8 16.0001C19.8 16.7733 19.1732 17.4001 18.4 17.4001H1.59995C0.826752 17.4001 0.199951 16.7733 0.199951 16.0001Z" fill="currentColor" />
		</symbol>
		<symbol id="arrow-right" width="100%" height="100%" viewBox="0 0 15 10">
			<path d="M13 5L13.7071 4.29289L14.4142 5L13.7071 5.70711L13 5ZM1 6C0.447715 6 0 5.55228 0 5C0 4.44772 0.447715 4 1 4V6ZM9.70711 0.292893L13.7071 4.29289L12.2929 5.70711L8.29289 1.70711L9.70711 0.292893ZM13.7071 5.70711L9.70711 9.70711L8.29289 8.29289L12.2929 4.29289L13.7071 5.70711ZM13 6H1V4H13V6Z" fill="currentColor" />
		</symbol>
		<symbol id="arrow-left" width="100%" height="100%" viewBox="0 0 15 10">
			<path d="M2 5L1.29289 4.29289L0.585786 5L1.29289 5.70711L2 5ZM14 6C14.5523 6 15 5.55228 15 5C15 4.44772 14.5523 4 14 4V6ZM5.29289 0.292893L1.29289 4.29289L2.70711 5.70711L6.70711 1.70711L5.29289 0.292893ZM1.29289 5.70711L5.29289 9.70711L6.70711 8.29289L2.70711 4.29289L1.29289 5.70711ZM2 6H14V4H2V6Z" fill="currentColor" />
		</symbol>
		<symbol id="gal-ochka" width="100%" height="100%" viewBox="0 0 12 10">
			<path d="M6.23497 8.79946C5.9649 9.16602 5.54433 9.3913 5.0896 9.41369C4.63487 9.43632 4.19445 9.25304 3.88975 8.91464L1.15929 5.88456C0.725328 5.40328 0.763876 4.6614 1.24515 4.22744C1.72689 3.79348 2.46831 3.83226 2.90227 4.31377L4.83407 6.45771C4.8627 6.48956 4.90425 6.50664 4.94695 6.50456C4.98988 6.50249 5.02912 6.48102 5.05475 6.44686L9.02546 1.0614C9.40979 0.539728 10.1443 0.428699 10.6662 0.813259C11.1876 1.19782 11.2984 1.93232 10.9139 2.45376L6.23497 8.79946Z" fill="currentColor" />
		</symbol>
		<symbol id="to-right" width="100%" height="100%" viewBox="0 0 8 14">
			<path d="M5.63663 7.00019L1.15148 2.51504C0.7935 2.15706 0.7935 1.57666 1.15148 1.21868C1.50946 0.8607 2.08986 0.8607 2.44784 1.21868L7.58118 6.35201C7.93916 6.70999 7.93916 7.29039 7.58118 7.64838L2.44784 12.7817C2.08986 13.1397 1.50946 13.1397 1.15148 12.7817C0.7935 12.4237 0.7935 11.8433 1.15148 11.4853L5.63663 7.00019Z" fill="currentColor" />
		</symbol>
		<symbol id="to-left" width="100%" height="100%" viewBox="0 0 8 14">
			<path d="M2.36337 7.00019L6.84852 2.51504C7.2065 2.15706 7.2065 1.57666 6.84852 1.21868C6.49054 0.8607 5.91014 0.8607 5.55216 1.21868L0.418823 6.35201C0.0608425 6.70999 0.0608425 7.29039 0.418823 7.64838L5.55216 12.7817C5.91014 13.1397 6.49054 13.1397 6.84852 12.7817C7.2065 12.4237 7.2065 11.8433 6.84852 11.4853L2.36337 7.00019Z" fill="currentColor" />
		</symbol>
		<symbol id="play" width="100%" height="100%" viewBox="0 0 32 38">
			<path d="M5.27275 38C4.93519 38 4.61146 37.8332 4.37278 37.5363C4.13409 37.2393 4 36.8366 4 36.4167V1.58307C4.00004 1.30794 4.05771 1.03756 4.16732 0.79859C4.27694 0.559623 4.43472 0.360315 4.62511 0.220312C4.81551 0.0803081 5.03194 0.00444103 5.25308 0.000189119C5.47422 -0.00406279 5.69243 0.0634472 5.88621 0.196064L31.3411 17.6129C31.5407 17.7495 31.7071 17.9503 31.823 18.1943C31.9389 18.4383 32 18.7165 32 18.9999C32 19.2833 31.9389 19.5615 31.823 19.8054C31.7071 20.0494 31.5407 20.2502 31.3411 20.3869L5.88621 37.8037C5.69829 37.9324 5.48727 37.9999 5.27275 38Z" fill="currentColor" />
		</symbol>
		<symbol id="cross" width="100%" height="100%" viewBox="0 0 16 16">
			<path d="M1 15L15 1M1 1L15 15" fill="none" stroke="currentColor" stroke-width="2" stroke-linecap="round" stroke-linejoin="round" />
		</symbol>
		<symbol id="shop-bag" width="100%" height="100%" viewBox="0 0 21 21">
			<path d="M13.4782 8.98547V5.6159C13.4782 3.75494 11.9696 2.24634 10.1086 2.24634C8.24768 2.24634 6.73907 3.75494 6.73907 5.6159V8.98547M4.2119 7.30069H16.0054L16.8478 17.4094H3.36951L4.2119 7.30069Z" fill="rgba(0, 0, 0, 0)" stroke="currentColor" stroke-width="2" stroke-linecap="round" stroke-linejoin="round"/>
		</symbol>
		<symbol id="doc" width="100%" height="100%" viewBox="0 0 24 24">
			<path fill-rule="evenodd" clip-rule="evenodd" d="M11.8 0V6.4L11.8 6.45441C11.7999 6.87848 11.7998 7.29061 11.8455 7.63052C11.897 8.01372 12.0226 8.451 12.3858 8.81421C12.749 9.17743 13.1863 9.30295 13.5695 9.35447C13.9094 9.40017 14.3215 9.40009 14.7456 9.40001H14.7456H14.7456H14.7456L14.8 9.4H21.2V16.8C21.2 20.1941 21.2 21.8912 20.1456 22.9456C19.0912 24 17.3941 24 14 24H9.2C5.80589 24 4.10883 24 3.05442 22.9456C2 21.8912 2 20.1941 2 16.8V7.2C2 3.80589 2 2.10883 3.05442 1.05442C4.10883 0 5.80589 0 9.2 0H11.8ZM13.8 0.0020285V6.4C13.8 6.89968 13.8021 7.17383 13.8277 7.36403L13.8287 7.37131L13.836 7.37231C14.0262 7.39788 14.3003 7.4 14.8 7.4H21.198C21.1909 6.79083 21.1592 6.41833 21.0173 6.07567C20.8346 5.63462 20.4878 5.28779 19.7941 4.59411L16.6059 1.40589C15.9122 0.712215 15.5654 0.365378 15.1243 0.182689C14.7817 0.0407568 14.4092 0.00909258 13.8 0.0020285ZM7 13.2C7 12.6477 7.44772 12.2 8 12.2L15.2 12.2C15.7523 12.2 16.2 12.6477 16.2 13.2C16.2 13.7523 15.7523 14.2 15.2 14.2L8 14.2C7.44772 14.2 7 13.7523 7 13.2ZM8 17C7.44772 17 7 17.4477 7 18C7 18.5523 7.44772 19 8 19H12.8C13.3523 19 13.8 18.5523 13.8 18C13.8 17.4477 13.3523 17 12.8 17H8Z" fill="currentColor"/>
		</symbol>
		<symbol id="message" width="100%" height="100%" viewBox="0 0 24 24">
			<path fill-rule="evenodd" clip-rule="evenodd" d="M0.00105681 8.14455C0 8.41441 0 8.69921 0 9V15.6667C0 18.4951 0 19.9093 0.87868 20.788C1.75736 21.6667 3.17157 21.6667 6 21.6667H18C20.8284 21.6667 22.2426 21.6667 23.1213 20.788C24 19.9093 24 18.4951 24 15.6667V9C24 8.69921 24 8.41441 23.9989 8.14455L12.9713 14.271C12.3672 14.6066 11.6328 14.6066 11.0287 14.271L0.00105681 8.14455ZM0.0758601 6.00264C0.215518 6.01317 0.355182 6.05336 0.485643 6.12584L12 12.5227L23.5144 6.12584C23.6448 6.05336 23.7845 6.01318 23.9241 6.00264C23.8284 5.0261 23.6116 4.36901 23.1213 3.87868C22.2426 3 20.8284 3 18 3H6C3.17157 3 1.75736 3 0.87868 3.87868C0.388351 4.36901 0.17164 5.0261 0.0758601 6.00264Z" fill="currentColor"/>
		</symbol>
		<symbol id="tel" width="100%" height="100%" viewBox="0 0 24 24">
			<path d="M12.8 6.3999C12.3584 6.3999 12 6.7583 12 7.1999C12 7.6415 12.3584 7.9999 12.8 7.9999C14.5648 7.9999 16 9.4351 16 11.1999C16 11.6415 16.3584 11.9999 16.8 11.9999C17.2416 11.9999 17.6 11.6415 17.6 11.1999C17.6 8.5535 15.4464 6.3999 12.8 6.3999Z" fill="currentColor"/>
			<path d="M12.8 3.2002C12.3584 3.2002 12 3.5586 12 4.0002C12 4.4418 12.3584 4.8002 12.8 4.8002C16.3296 4.8002 19.2 7.6706 19.2 11.2002C19.2 11.6418 19.5584 12.0002 20 12.0002C20.4416 12.0002 20.8 11.6418 20.8 11.2002C20.8 6.789 17.2112 3.2002 12.8 3.2002Z" fill="currentColor"/>
			<path d="M12.8 0C12.3584 0 12 0.3584 12 0.8C12 1.2416 12.3584 1.6 12.8 1.6C18.0944 1.6 22.4 5.9056 22.4 11.2C22.4 11.6416 22.7584 12 23.2 12C23.6416 12 24 11.6416 24 11.2C24 5.024 18.9744 0 12.8 0Z" fill="currentColor"/>
			<path d="M21.6 17.6001C19.2768 17.6001 17.064 17.0945 15.024 16.0977C14.832 16.0017 14.6112 15.9905 14.4112 16.0609C14.2096 16.1313 14.0448 16.2785 13.952 16.4689L12.6944 19.0721C9.44 17.2561 6.7456 14.5633 4.9312 11.3089L7.5328 10.0481C7.7248 9.9553 7.8704 9.7905 7.9408 9.5889C8.0096 9.3889 7.9968 9.1681 7.9024 8.9761C6.9056 6.9361 6.4 4.7233 6.4 2.4001C6.4 1.9585 6.0416 1.6001 5.6 1.6001H0.8C0.3584 1.6001 0 1.9585 0 2.4001C0 14.3105 9.6896 24.0001 21.6 24.0001C22.0416 24.0001 22.4 23.6417 22.4 23.2001V18.4001C22.4 17.9585 22.0416 17.6001 21.6 17.6001Z" fill="currentColor"/>
		</symbol>
		<symbol id="tg" width="100%" height="100%" viewBox="0 0 14 11">
			<path fill-rule="evenodd" clip-rule="evenodd" d="M1.66704 4.72517C5.06563 3.24921 7.32811 2.26848 8.46421 1.79267C11.6977 0.442951 12.3774 0.209906 12.8144 0.200195C12.9115 0.200195 13.1251 0.219616 13.2708 0.336139C13.3873 0.433241 13.4164 0.559474 13.4359 0.656577C13.4553 0.753679 13.4747 0.957594 13.4553 1.11296C13.2805 2.9579 12.5231 7.43432 12.1347 9.49289C11.9696 10.3668 11.6492 10.6581 11.3384 10.6873C10.6587 10.7455 10.1441 10.2406 9.4935 9.81333C8.46421 9.14332 7.89131 8.72578 6.89115 8.06549C5.73563 7.30809 6.48332 6.89055 7.14362 6.21083C7.3184 6.03605 10.2994 3.31718 10.3577 3.07443C10.3674 3.0453 10.3674 2.92877 10.2994 2.87051C10.2315 2.81225 10.1344 2.83167 10.0567 2.85109C9.94988 2.87051 8.31856 3.95806 5.14331 6.10402C4.67722 6.42446 4.25968 6.57982 3.88098 6.57011C3.46344 6.5604 2.6672 6.33706 2.06516 6.14286C1.3369 5.90981 0.754281 5.78358 0.802832 5.37575C0.831963 5.16213 1.12327 4.9485 1.66704 4.72517Z" fill="currentColor"/>
		</symbol>
		<symbol id="vk" width="100%" height="100%" viewBox="0 0 20 12">
			<path d="M10.8931 12C4.0599 12 0.162399 7.49549 0 0H3.42286C3.53529 5.5015 6.05865 7.83183 8.0574 8.31231V0H11.2805V4.74474C13.2543 4.54054 15.3277 2.37838 16.0273 0H19.2503C18.7132 2.93093 16.4646 5.09309 14.8656 5.98198C16.4646 6.7027 19.0256 8.58859 20 12H16.4521C15.6901 9.71772 13.7914 7.95195 11.2805 7.71171V12H10.8931Z" fill="currentColor"/>
		</symbol>
		<symbol id="ok" width="100%" height="100%" viewBox="0 0 10 18">
			<path d="M5.01492 9C7.76119 9 10 6.97903 10 4.49999C10 2.02095 7.76119 0 5.01492 0C2.23881 0 0 2.02095 0 4.49999C0 6.97903 2.23881 9 5.01492 9ZM5.01492 2.64071C6.14924 2.64071 7.07462 3.47604 7.07462 4.49999C7.07462 5.52394 6.14924 6.35927 5.01492 6.35927C3.88059 6.35927 2.95522 5.52394 2.95522 4.49999C2.92538 3.47604 3.85073 2.64071 5.01492 2.64071Z" fill="currentColor"/>
			<path d="M6.80546 12.8486C7.71115 12.6134 8.59019 12.2312 9.38941 11.6728C10.0019 11.2612 10.1884 10.35 9.7889 9.67393C9.41602 8.99785 8.59019 8.79207 7.97752 9.23299C6.16616 10.497 3.79541 10.497 1.98403 9.23299C1.37136 8.82148 0.572232 8.99785 0.172668 9.67393C-0.173625 10.35 0.0128346 11.2318 0.625503 11.6434C1.42465 12.2019 2.30369 12.584 3.20936 12.8192L0.732065 15.5529C0.225939 16.1114 0.225939 17.0226 0.732065 17.5811C0.998441 17.875 1.31809 17.9926 1.66438 17.9926C2.01067 17.9926 2.33032 17.8456 2.5967 17.5811L5.04737 14.8768L7.49804 17.5811C8.00417 18.1396 8.8299 18.1396 9.33601 17.5811C9.84212 17.0226 9.84212 16.1114 9.33601 15.5529L6.80546 12.8486Z" fill="currentColor"/>
		</symbol>
	</defs>
</svg>
