<svg width="194" height="54" viewBox="0 0 194 54" fill="none" xmlns="http://www.w3.org/2000/svg">
<path d="M170.189 31.4452V30.0909H189.056C189.706 30.0909 190.234 30.6182 190.234 31.2681V32.6224H171.366C170.715 32.6224 170.188 32.0952 170.188 31.4446L170.189 31.4452ZM188.614 14.7847H171.366C170.716 14.7847 170.189 15.3119 170.189 15.9624V17.3167H187.437C188.086 17.3167 188.614 16.7895 188.614 16.139V14.7847ZM170.189 2.91852H189.056C189.706 2.91852 190.234 2.39127 190.234 1.74076V0.386475H171.366C170.715 0.386475 170.188 0.913718 170.188 1.56424V2.91852H170.189Z" fill="white"/>
<path d="M95.3922 18.2629L63.9532 30.8167V28.8252C63.9532 28.3436 64.2467 27.9102 64.6941 27.7313L92.7479 16.5296L64.6923 5.27978C64.2455 5.10037 63.9532 4.66804 63.9532 4.18652V2.19214L95.394 14.7991C95.8402 14.9779 96.133 15.4108 96.133 15.8918V17.1685C96.133 17.65 95.8396 18.0835 95.3922 18.2618V18.2629Z" fill="#E31E24"/>
<path d="M12.1759 14.8312C6.05559 14.8312 7.48453 14.8312 1.03086 14.8312C1.03086 17.156 1.03086 30.8105 1.03086 32.5665C1.4082 32.5665 11.1613 32.5358 12.0063 32.5636C17.2087 32.7181 21.4157 28.4712 21.2021 23.3174C21.0042 18.5433 16.9541 14.8312 12.1759 14.8312ZM18.7413 23.8858C18.6382 27.3646 15.693 30.0877 12.2124 30.0877C8.63046 30.0877 5.83624 30.0877 3.56174 30.0877V17.2967H12.3484C15.9389 17.2967 18.8483 20.2714 18.7413 23.8858ZM2.20804 0.44165H16.884C16.884 1.51697 17.0988 3.01247 15.7069 3.01247H1.03086C1.03086 1.93715 0.81614 0.44165 2.20804 0.44165Z" fill="white"/>
<path d="M41.7222 0C32.6213 0 25.2173 7.40398 25.2173 16.5049C25.2173 25.6057 32.6213 33.0097 41.7222 33.0097C50.823 33.0097 58.227 25.6057 58.227 16.5049C58.227 7.40398 50.823 0 41.7222 0ZM41.7222 30.476C34.0184 30.476 27.7511 24.2086 27.7511 16.5049C27.7511 8.80109 34.0184 2.5332 41.7222 2.5332C49.4259 2.5332 55.6932 8.80051 55.6932 16.5049C55.6932 24.2086 49.4259 30.476 41.7222 30.476Z" fill="white"/>
<path d="M108.747 32.5983H101.359V31.4228C101.359 30.7723 101.886 30.2456 102.536 30.2456H108.78C113.305 30.2456 117.111 26.6834 117.218 22.1605C117.328 17.5015 113.57 13.6765 108.936 13.6765H104.203C103.553 13.6765 103.025 13.1493 103.025 12.4994V0.412109H104.201C104.852 0.412109 105.379 0.939353 105.379 1.58929V11.3233H108.936C114.74 11.3233 119.473 15.995 119.572 21.7756C119.674 27.7269 114.7 32.5983 108.747 32.5983H108.747Z" fill="white"/>
<path d="M144.443 25.9282V3.39161C144.443 2.69884 143.882 2.13745 143.189 2.13745H141.747V24.5462C141.747 25.309 142.366 25.9282 143.128 25.9282H144.443Z" fill="white"/>
<path d="M160.749 25.9282V0.411621H159.306C158.614 0.411621 158.052 0.973011 158.052 1.66578V24.5462C158.052 25.309 158.671 25.9282 159.434 25.9282H160.749Z" fill="white"/>
<path d="M129.106 24.5467V1.66627C129.106 0.973499 128.545 0.412109 127.852 0.412109H126.41V25.9287H127.725C128.488 25.9287 129.107 25.31 129.107 24.5467H129.106Z" fill="white"/>
<path d="M126.41 29.9014V31.3436C126.41 31.9756 126.879 32.4924 127.486 32.5798V32.5978C128.415 32.5978 158.579 32.5978 159.494 32.5978C160.187 32.5978 160.748 32.0364 160.748 31.3436V29.9014C156.713 29.9014 130.371 29.9014 126.41 29.9014Z" fill="white"/>
<path d="M5.74657 47.7442L8.66339 41.127H9.88235L6.26898 49.4856H5.22415L1.67608 41.127H2.87328L5.74657 47.7442ZM2.45971 41.127V49.4856H1.17543V41.127H2.45971ZM9.03343 49.4856V41.127H10.3177V49.4856H9.03343ZM15.1283 49.6815C14.5986 49.6815 14.1179 49.5817 13.6862 49.3822C13.2545 49.179 12.9116 48.887 12.6577 48.5061C12.4037 48.1215 12.2768 47.6571 12.2768 47.113C12.2768 46.6341 12.3711 46.2459 12.5597 45.9484C12.7484 45.6473 13.0005 45.4115 13.3161 45.241C13.6318 45.0705 13.98 44.9435 14.361 44.86C14.7455 44.773 15.1319 44.704 15.5201 44.6533C16.028 44.588 16.4398 44.539 16.7554 44.5063C17.0746 44.47 17.3068 44.4102 17.4519 44.3267C17.6007 44.2433 17.675 44.0982 17.675 43.8914V43.8479C17.675 43.3109 17.5281 42.8937 17.2343 42.5962C16.944 42.2988 16.5032 42.15 15.9119 42.15C15.2988 42.15 14.8181 42.2842 14.4698 42.5527C14.1215 42.8212 13.8767 43.1078 13.7352 43.4125L12.5162 42.9772C12.7339 42.4693 13.0241 42.0738 13.3869 41.7909C13.7533 41.5043 14.1524 41.3047 14.5841 41.1923C15.0194 41.0762 15.4475 41.0181 15.8684 41.0181C16.1368 41.0181 16.4452 41.0508 16.7935 41.1161C17.1454 41.1777 17.4846 41.3065 17.8111 41.5024C18.1412 41.6983 18.4151 41.994 18.6328 42.3895C18.8505 42.7849 18.9593 43.3146 18.9593 43.9785V49.4856H17.675V48.3537H17.6097C17.5227 48.5351 17.3776 48.7292 17.1744 48.936C16.9712 49.1428 16.701 49.3187 16.3636 49.4638C16.0262 49.6089 15.6144 49.6815 15.1283 49.6815ZM15.3242 48.5278C15.8321 48.5278 16.2602 48.4281 16.6085 48.2285C16.9604 48.029 17.2252 47.7714 17.403 47.4558C17.5844 47.1402 17.675 46.8082 17.675 46.4599V45.2845C17.6206 45.3498 17.5009 45.4097 17.3159 45.4641C17.1345 45.5149 16.9241 45.5602 16.6846 45.6001C16.4488 45.6364 16.2185 45.6691 15.9935 45.6981C15.7722 45.7235 15.5926 45.7452 15.4548 45.7634C15.121 45.8069 14.809 45.8777 14.5188 45.9756C14.2322 46.0699 14 46.2132 13.8222 46.4055C13.6481 46.5942 13.561 46.8518 13.561 47.1783C13.561 47.6245 13.7261 47.9619 14.0562 48.1904C14.39 48.4154 14.8126 48.5278 15.3242 48.5278ZM21.3034 52.6201V41.127H22.5441V42.4548H22.6965C22.7908 42.3096 22.9214 42.1246 23.0883 41.8997C23.2588 41.6711 23.5019 41.468 23.8175 41.2902C24.1368 41.1088 24.5685 41.0181 25.1127 41.0181C25.8165 41.0181 26.4368 41.1941 26.9738 41.546C27.5107 41.8979 27.9297 42.3967 28.2308 43.0425C28.5319 43.6882 28.6825 44.4501 28.6825 45.328C28.6825 46.2132 28.5319 46.9805 28.2308 47.6299C27.9297 48.2757 27.5125 48.7763 26.9792 49.1319C26.4459 49.4838 25.831 49.6597 25.1344 49.6597C24.5975 49.6597 24.1676 49.5709 23.8447 49.3931C23.5218 49.2117 23.2733 49.0067 23.0992 48.7782C22.925 48.546 22.7908 48.3537 22.6965 48.2013H22.5877V52.6201H21.3034ZM22.5659 45.3063C22.5659 45.9375 22.6584 46.4944 22.8434 46.9769C23.0284 47.4558 23.2987 47.8313 23.6543 48.1034C24.0098 48.3718 24.4451 48.5061 24.9603 48.5061C25.4972 48.5061 25.9453 48.3646 26.3044 48.0816C26.6672 47.795 26.9393 47.4104 27.1207 46.9279C27.3057 46.4418 27.3982 45.9012 27.3982 45.3063C27.3982 44.7186 27.3075 44.1889 27.1261 43.7173C26.9484 43.242 26.6781 42.8665 26.3153 42.5908C25.9561 42.3115 25.5045 42.1718 24.9603 42.1718C24.4379 42.1718 23.9989 42.3042 23.6434 42.569C23.2878 42.8302 23.0194 43.1967 22.838 43.6683C22.6566 44.1363 22.5659 44.6823 22.5659 45.3063ZM30.6416 49.4856V41.127H31.9258V44.7621H32.7748L35.7786 41.127H37.433L34.059 45.1539L37.4765 49.4856H35.8222L33.0795 45.9593H31.9258V49.4856H30.6416ZM42.0327 49.6597C41.2273 49.6597 40.5325 49.482 39.9484 49.1264C39.368 48.7673 38.9199 48.2666 38.6043 47.6245C38.2923 46.9787 38.1363 46.2278 38.1363 45.3716C38.1363 44.5154 38.2923 43.7608 38.6043 43.1078C38.9199 42.4511 39.3589 41.9396 39.9212 41.5732C40.4872 41.2031 41.1475 41.0181 41.9021 41.0181C42.3374 41.0181 42.7673 41.0907 43.1918 41.2358C43.6162 41.3809 44.0026 41.6167 44.3509 41.9432C44.6992 42.2661 44.9767 42.6942 45.1835 43.2275C45.3903 43.7608 45.4937 44.4174 45.4937 45.1974V45.7416H39.0505V44.6315H44.1876C44.1876 44.1599 44.0933 43.739 43.9046 43.369C43.7196 42.9989 43.4548 42.7069 43.1101 42.4929C42.7691 42.2788 42.3664 42.1718 41.9021 42.1718C41.3905 42.1718 40.9479 42.2988 40.5742 42.5527C40.2042 42.803 39.9194 43.1295 39.7199 43.5322C39.5203 43.9349 39.4206 44.3667 39.4206 44.8274V45.5675C39.4206 46.1987 39.5294 46.7338 39.7471 47.1728C39.9684 47.6082 40.2749 47.9401 40.6668 48.1687C41.0586 48.3936 41.5139 48.5061 42.0327 48.5061C42.3701 48.5061 42.6748 48.4589 42.9469 48.3646C43.2226 48.2666 43.4602 48.1215 43.6598 47.9292C43.8593 47.7333 44.0135 47.4903 44.1223 47.2L45.3631 47.5483C45.2325 47.9691 45.013 48.3392 44.7046 48.6584C44.3962 48.9741 44.0153 49.2208 43.5618 49.3985C43.1083 49.5727 42.5986 49.6597 42.0327 49.6597ZM46.6691 42.3242V41.127H53.4605V42.3242H50.7178V49.4856H49.4335V42.3242H46.6691ZM56.6181 47.5918L60.6451 41.127H62.1252V49.4856H60.841V43.0207L56.8358 49.4856H55.3338V41.127H56.6181V47.5918ZM70.0717 44.7186V45.9158H65.457V44.7186H70.0717ZM65.7617 41.127V49.4856H64.4775V41.127H65.7617ZM71.0512 41.127V49.4856H69.7669V41.127H71.0512ZM78.5555 41.127V42.3242H74.6809V49.4856H73.3966V41.127H78.5555ZM83.3919 49.6597C82.6373 49.6597 81.9752 49.4802 81.4056 49.121C80.8397 48.7618 80.3971 48.2594 80.0778 47.6136C79.7622 46.9678 79.6044 46.2132 79.6044 45.3498C79.6044 44.4791 79.7622 43.7191 80.0778 43.0697C80.3971 42.4203 80.8397 41.916 81.4056 41.5569C81.9752 41.1977 82.6373 41.0181 83.3919 41.0181C84.1465 41.0181 84.8068 41.1977 85.3727 41.5569C85.9423 41.916 86.3849 42.4203 86.7005 43.0697C87.0198 43.7191 87.1794 44.4791 87.1794 45.3498C87.1794 46.2132 87.0198 46.9678 86.7005 47.6136C86.3849 48.2594 85.9423 48.7618 85.3727 49.121C84.8068 49.4802 84.1465 49.6597 83.3919 49.6597ZM83.3919 48.5061C83.9651 48.5061 84.4367 48.3591 84.8068 48.0653C85.1768 47.7714 85.4507 47.3851 85.6285 46.9062C85.8062 46.4273 85.8951 45.9085 85.8951 45.3498C85.8951 44.7911 85.8062 44.2705 85.6285 43.788C85.4507 43.3055 85.1768 42.9155 84.8068 42.618C84.4367 42.3205 83.9651 42.1718 83.3919 42.1718C82.8187 42.1718 82.3471 42.3205 81.977 42.618C81.607 42.9155 81.3331 43.3055 81.1553 43.788C80.9775 44.2705 80.8886 44.7911 80.8886 45.3498C80.8886 45.9085 80.9775 46.4273 81.1553 46.9062C81.3331 47.3851 81.607 47.7714 81.977 48.0653C82.3471 48.3591 82.8187 48.5061 83.3919 48.5061ZM89.1398 49.4856V41.127H92.5573C93.457 41.127 94.1717 41.3301 94.7014 41.7364C95.231 42.1428 95.4959 42.6797 95.4959 43.3472C95.4959 43.8551 95.3453 44.2487 95.0442 44.5281C94.7431 44.8038 94.3567 44.9906 93.8851 45.0886C94.1935 45.1321 94.4928 45.241 94.783 45.4151C95.0769 45.5892 95.3199 45.8287 95.5122 46.1334C95.7045 46.4345 95.8006 46.8046 95.8006 47.2436C95.8006 47.6717 95.6918 48.0544 95.4741 48.3918C95.2564 48.7292 94.9444 48.9958 94.5381 49.1917C94.1318 49.3876 93.6457 49.4856 93.0797 49.4856H89.1398ZM90.3588 48.3102H93.0797C93.5223 48.3102 93.8688 48.205 94.1191 47.9945C94.3694 47.7841 94.4946 47.4975 94.4946 47.1347C94.4946 46.703 94.3694 46.3638 94.1191 46.1171C93.8688 45.8668 93.5223 45.7416 93.0797 45.7416H90.3588V48.3102ZM90.3588 44.6315H92.5573C92.9019 44.6315 93.1976 44.5843 93.4443 44.49C93.691 44.392 93.8796 44.2542 94.0103 44.0764C94.1445 43.895 94.2116 43.681 94.2116 43.4343C94.2116 43.0824 94.0647 42.8067 93.7708 42.6071C93.477 42.404 93.0724 42.3024 92.5573 42.3024H90.3588V44.6315ZM101.14 49.6597C100.386 49.6597 99.7237 49.4802 99.1541 49.121C98.5882 48.7618 98.1456 48.2594 97.8263 47.6136C97.5107 46.9678 97.3529 46.2132 97.3529 45.3498C97.3529 44.4791 97.5107 43.7191 97.8263 43.0697C98.1456 42.4203 98.5882 41.916 99.1541 41.5569C99.7237 41.1977 100.386 41.0181 101.14 41.0181C101.895 41.0181 102.555 41.1977 103.121 41.5569C103.691 41.916 104.133 42.4203 104.449 43.0697C104.768 43.7191 104.928 44.4791 104.928 45.3498C104.928 46.2132 104.768 46.9678 104.449 47.6136C104.133 48.2594 103.691 48.7618 103.121 49.121C102.555 49.4802 101.895 49.6597 101.14 49.6597ZM101.14 48.5061C101.714 48.5061 102.185 48.3591 102.555 48.0653C102.925 47.7714 103.199 47.3851 103.377 46.9062C103.555 46.4273 103.644 45.9085 103.644 45.3498C103.644 44.7911 103.555 44.2705 103.377 43.788C103.199 43.3055 102.925 42.9155 102.555 42.618C102.185 42.3205 101.714 42.1718 101.14 42.1718C100.567 42.1718 100.096 42.3205 99.7255 42.618C99.3555 42.9155 99.0816 43.3055 98.9038 43.788C98.726 44.2705 98.6372 44.7911 98.6372 45.3498C98.6372 45.9085 98.726 46.4273 98.9038 46.9062C99.0816 47.3851 99.3555 47.7714 99.7255 48.0653C100.096 48.3591 100.567 48.5061 101.14 48.5061ZM110.393 49.6597C109.587 49.6597 108.893 49.482 108.309 49.1264C107.728 48.7673 107.28 48.2666 106.965 47.6245C106.653 46.9787 106.497 46.2278 106.497 45.3716C106.497 44.5154 106.653 43.7608 106.965 43.1078C107.28 42.4511 107.719 41.9396 108.281 41.5732C108.847 41.2031 109.508 41.0181 110.262 41.0181C110.698 41.0181 111.128 41.0907 111.552 41.2358C111.976 41.3809 112.363 41.6167 112.711 41.9432C113.059 42.2661 113.337 42.6942 113.544 43.2275C113.75 43.7608 113.854 44.4174 113.854 45.1974V45.7416H107.411V44.6315H112.548C112.548 44.1599 112.454 43.739 112.265 43.369C112.08 42.9989 111.815 42.7069 111.47 42.4929C111.129 42.2788 110.727 42.1718 110.262 42.1718C109.751 42.1718 109.308 42.2988 108.934 42.5527C108.564 42.803 108.28 43.1295 108.08 43.5322C107.881 43.9349 107.781 44.3667 107.781 44.8274V45.5675C107.781 46.1987 107.89 46.7338 108.107 47.1728C108.329 47.6082 108.635 47.9401 109.027 48.1687C109.419 48.3936 109.874 48.5061 110.393 48.5061C110.73 48.5061 111.035 48.4589 111.307 48.3646C111.583 48.2666 111.82 48.1215 112.02 47.9292C112.22 47.7333 112.374 47.4903 112.483 47.2L113.723 47.5483C113.593 47.9691 113.373 48.3392 113.065 48.6584C112.756 48.9741 112.376 49.2208 111.922 49.3985C111.469 49.5727 110.959 49.6597 110.393 49.6597ZM122.577 49.6815C122.047 49.6815 121.567 49.5817 121.135 49.3822C120.703 49.179 120.36 48.887 120.107 48.5061C119.853 48.1215 119.726 47.6571 119.726 47.113C119.726 46.6341 119.82 46.2459 120.009 45.9484C120.197 45.6473 120.449 45.4115 120.765 45.241C121.081 45.0705 121.429 44.9435 121.81 44.86C122.194 44.773 122.581 44.704 122.969 44.6533C123.477 44.588 123.889 44.539 124.204 44.5063C124.523 44.47 124.756 44.4102 124.901 44.3267C125.05 44.2433 125.124 44.0982 125.124 43.8914V43.8479C125.124 43.3109 124.977 42.8937 124.683 42.5962C124.393 42.2988 123.952 42.15 123.361 42.15C122.748 42.15 122.267 42.2842 121.919 42.5527C121.57 42.8212 121.325 43.1078 121.184 43.4125L119.965 42.9772C120.183 42.4693 120.473 42.0738 120.836 41.7909C121.202 41.5043 121.601 41.3047 122.033 41.1923C122.468 41.0762 122.896 41.0181 123.317 41.0181C123.586 41.0181 123.894 41.0508 124.242 41.1161C124.594 41.1777 124.933 41.3065 125.26 41.5024C125.59 41.6983 125.864 41.994 126.082 42.3895C126.299 42.7849 126.408 43.3146 126.408 43.9785V49.4856H125.124V48.3537H125.059C124.972 48.5351 124.826 48.7292 124.623 48.936C124.42 49.1428 124.15 49.3187 123.812 49.4638C123.475 49.6089 123.063 49.6815 122.577 49.6815ZM122.773 48.5278C123.281 48.5278 123.709 48.4281 124.057 48.2285C124.409 48.029 124.674 47.7714 124.852 47.4558C125.033 47.1402 125.124 46.8082 125.124 46.4599V45.2845C125.069 45.3498 124.95 45.4097 124.765 45.4641C124.583 45.5149 124.373 45.5602 124.133 45.6001C123.898 45.6364 123.667 45.6691 123.442 45.6981C123.221 45.7235 123.041 45.7452 122.904 45.7634C122.57 45.8069 122.258 45.8777 121.968 45.9756C121.681 46.0699 121.449 46.2132 121.271 46.4055C121.097 46.5942 121.01 46.8518 121.01 47.1783C121.01 47.6245 121.175 47.9619 121.505 48.1904C121.839 48.4154 122.261 48.5278 122.773 48.5278ZM133.911 41.127V42.3242H130.036V49.4856H128.752V41.127H133.911ZM138.856 49.6597C138.051 49.6597 137.356 49.482 136.772 49.1264C136.192 48.7673 135.744 48.2666 135.428 47.6245C135.116 46.9787 134.96 46.2278 134.96 45.3716C134.96 44.5154 135.116 43.7608 135.428 43.1078C135.744 42.4511 136.183 41.9396 136.745 41.5732C137.311 41.2031 137.971 41.0181 138.726 41.0181C139.161 41.0181 139.591 41.0907 140.015 41.2358C140.44 41.3809 140.826 41.6167 141.175 41.9432C141.523 42.2661 141.8 42.6942 142.007 43.2275C142.214 43.7608 142.317 44.4174 142.317 45.1974V45.7416H135.874V44.6315H141.011C141.011 44.1599 140.917 43.739 140.728 43.369C140.543 42.9989 140.278 42.7069 139.934 42.4929C139.593 42.2788 139.19 42.1718 138.726 42.1718C138.214 42.1718 137.772 42.2988 137.398 42.5527C137.028 42.803 136.743 43.1295 136.544 43.5322C136.344 43.9349 136.244 44.3667 136.244 44.8274V45.5675C136.244 46.1987 136.353 46.7338 136.571 47.1728C136.792 47.6082 137.099 47.9401 137.49 48.1687C137.882 48.3936 138.338 48.5061 138.856 48.5061C139.194 48.5061 139.498 48.4589 139.771 48.3646C140.046 48.2666 140.284 48.1215 140.483 47.9292C140.683 47.7333 140.837 47.4903 140.946 47.2L142.187 47.5483C142.056 47.9691 141.837 48.3392 141.528 48.6584C141.22 48.9741 140.839 49.2208 140.385 49.3985C139.932 49.5727 139.422 49.6597 138.856 49.6597ZM149.865 44.7186V45.9158H145.25V44.7186H149.865ZM145.555 41.127V49.4856H144.271V41.127H145.555ZM150.845 41.127V49.4856H149.56V41.127H150.845ZM152.053 42.3242V41.127H158.844V42.3242H156.101V49.4856H154.817V42.3242H152.053ZM163.679 49.6597C162.896 49.6597 162.221 49.4747 161.655 49.1047C161.089 48.7346 160.654 48.2249 160.349 47.5755C160.044 46.9261 159.892 46.1842 159.892 45.3498C159.892 44.5009 160.048 43.7517 160.36 43.1023C160.675 42.4493 161.114 41.9396 161.677 41.5732C162.243 41.2031 162.903 41.0181 163.657 41.0181C164.245 41.0181 164.775 41.127 165.246 41.3446C165.718 41.5623 166.104 41.867 166.406 42.2589C166.707 42.6507 166.894 43.1078 166.966 43.6302H165.682C165.584 43.2493 165.366 42.9119 165.029 42.618C164.695 42.3205 164.245 42.1718 163.679 42.1718C163.179 42.1718 162.74 42.3024 162.362 42.5636C161.989 42.8212 161.697 43.1858 161.486 43.6574C161.279 44.1254 161.176 44.675 161.176 45.3063C161.176 45.952 161.278 46.5144 161.481 46.9932C161.688 47.4721 161.978 47.844 162.351 48.1088C162.729 48.3736 163.171 48.5061 163.679 48.5061C164.013 48.5061 164.316 48.448 164.588 48.3319C164.86 48.2158 165.09 48.049 165.279 47.8313C165.468 47.6136 165.602 47.3524 165.682 47.0477H166.966C166.894 47.5411 166.714 47.9855 166.427 48.3809C166.144 48.7727 165.769 49.0847 165.301 49.3169C164.837 49.5455 164.296 49.6597 163.679 49.6597ZM168.185 42.3242V41.127H174.976V42.3242H172.234V49.4856H170.949V42.3242H168.185ZM176.85 49.4856V41.127H180.267C181.167 41.127 181.882 41.3301 182.411 41.7364C182.941 42.1428 183.206 42.6797 183.206 43.3472C183.206 43.8551 183.055 44.2487 182.754 44.5281C182.453 44.8038 182.067 44.9906 181.595 45.0886C181.903 45.1321 182.203 45.241 182.493 45.4151C182.787 45.5892 183.03 45.8287 183.222 46.1334C183.414 46.4345 183.511 46.8046 183.511 47.2436C183.511 47.6717 183.402 48.0544 183.184 48.3918C182.966 48.7292 182.654 48.9958 182.248 49.1917C181.842 49.3876 181.356 49.4856 180.79 49.4856H176.85ZM178.069 48.3102H180.79C181.232 48.3102 181.579 48.205 181.829 47.9945C182.079 47.7841 182.205 47.4975 182.205 47.1347C182.205 46.703 182.079 46.3638 181.829 46.1171C181.579 45.8668 181.232 45.7416 180.79 45.7416H178.069V48.3102ZM178.069 44.6315H180.267C180.612 44.6315 180.908 44.5843 181.154 44.49C181.401 44.392 181.59 44.2542 181.72 44.0764C181.854 43.895 181.922 43.681 181.922 43.4343C181.922 43.0824 181.775 42.8067 181.481 42.6071C181.187 42.404 180.782 42.3024 180.267 42.3024H178.069V44.6315ZM188.85 49.6597C188.096 49.6597 187.434 49.4802 186.864 49.121C186.298 48.7618 185.856 48.2594 185.536 47.6136C185.221 46.9678 185.063 46.2132 185.063 45.3498C185.063 44.4791 185.221 43.7191 185.536 43.0697C185.856 42.4203 186.298 41.916 186.864 41.5569C187.434 41.1977 188.096 41.0181 188.85 41.0181C189.605 41.0181 190.265 41.1977 190.831 41.5569C191.401 41.916 191.843 42.4203 192.159 43.0697C192.478 43.7191 192.638 44.4791 192.638 45.3498C192.638 46.2132 192.478 46.9678 192.159 47.6136C191.843 48.2594 191.401 48.7618 190.831 49.121C190.265 49.4802 189.605 49.6597 188.85 49.6597ZM188.85 48.5061C189.424 48.5061 189.895 48.3591 190.265 48.0653C190.635 47.7714 190.909 47.3851 191.087 46.9062C191.265 46.4273 191.354 45.9085 191.354 45.3498C191.354 44.7911 191.265 44.2705 191.087 43.788C190.909 43.3055 190.635 42.9155 190.265 42.618C189.895 42.3205 189.424 42.1718 188.85 42.1718C188.277 42.1718 187.806 42.3205 187.436 42.618C187.065 42.9155 186.792 43.3055 186.614 43.788C186.436 44.2705 186.347 44.7911 186.347 45.3498C186.347 45.9085 186.436 46.4273 186.614 46.9062C186.792 47.3851 187.065 47.7714 187.436 48.0653C187.806 48.3591 188.277 48.5061 188.85 48.5061Z" fill="white"/>
</svg>
